<?xml version="1.0" standalone="no"?>
<!DOCTYPE svg PUBLIC "-//W3C//DTD SVG 20010904//EN"
 "http://www.w3.org/TR/2001/REC-SVG-20010904/DTD/svg10.dtd">
<svg version="1.0" xmlns="http://www.w3.org/2000/svg"
 width="700.000000pt" height="700.000000pt" viewBox="0 0 700.000000 700.000000"
 preserveAspectRatio="xMidYMid meet">
<metadata>
Created by potrace 1.11, written by Peter Selinger 2001-2013
</metadata>
<g transform="translate(0.000000,700.000000) scale(0.100000,-0.100000)"
fill="#000000" stroke="none">
<path d="M2183 6229 c-188 -27 -320 -67 -468 -141 -479 -242 -781 -744 -769
-1278 1 -69 5 -136 8 -150 3 -13 8 -42 11 -65 4 -22 11 -58 17 -80 5 -22 11
-47 13 -55 18 -92 105 -286 176 -393 71 -105 129 -167 609 -650 256 -258 467
-470 469 -472 3 -4 -56 2 -99 10 -14 3 -68 12 -120 20 -100 17 -129 22 -170
30 -14 3 -41 8 -60 11 -44 8 -46 9 -164 33 -55 12 -121 28 -148 36 -27 8 -52
14 -56 15 -4 0 -23 5 -42 10 -19 5 -46 11 -60 14 -14 2 -64 16 -113 30 -48 14
-91 26 -95 26 -5 0 -9 -450 -9 -1000 0 -914 1 -1000 16 -1000 9 0 43 10 76 21
33 11 72 22 86 24 15 3 70 17 124 31 53 14 104 27 113 29 9 2 73 15 142 30 69
15 139 29 155 32 17 2 58 10 91 17 94 19 126 16 130 -12 11 -70 78 -151 153
-186 46 -21 47 -21 1256 -23 906 -2 1220 0 1250 9 86 25 164 106 186 191 15
54 37 64 34 14 -3 -34 -2 -34 43 -35 30 0 41 3 31 9 -8 5 -24 9 -36 9 -16 0
-23 6 -23 20 0 22 15 25 69 14 21 -4 31 -12 31 -25 0 -10 5 -21 12 -25 8 -5 9
0 6 14 -5 18 -2 22 17 22 12 0 30 -10 38 -22 14 -20 16 -20 16 -5 1 13 7 16
24 12 12 -3 65 -14 117 -25 115 -25 394 -97 500 -129 19 -6 40 -11 46 -11 8 0
11 268 11 1000 0 550 -2 1000 -6 1000 -3 0 -38 -9 -76 -21 -39 -11 -77 -22
-85 -23 -8 -2 -35 -10 -60 -17 -65 -18 -85 -23 -127 -33 -10 -2 -45 -11 -78
-20 -33 -8 -76 -18 -95 -21 -19 -3 -53 -11 -75 -17 -22 -5 -51 -12 -65 -14
-14 -3 -38 -7 -55 -11 -40 -9 -34 -8 -90 -18 -27 -4 -57 -10 -65 -11 -17 -4
-59 -11 -110 -18 -19 -3 -48 -8 -65 -12 -16 -3 -28 -4 -25 -1 3 3 219 221 480
484 520 523 510 512 579 616 111 167 183 334 217 502 29 142 37 324 22 447
-55 426 -281 794 -628 1020 -54 35 -260 141 -260 133 0 -2 -27 7 -60 20 -33
13 -60 22 -60 20 0 -2 -17 2 -37 9 -21 7 -65 17 -98 22 -33 4 -69 9 -80 11
-11 2 -72 6 -135 9 -126 7 -268 -10 -400 -46 -41 -11 -82 -22 -90 -25 -89 -23
-362 -169 -400 -214 -3 -3 -21 -18 -40 -32 -19 -15 -66 -59 -105 -99 -86 -89
-83 -85 -124 -138 l-33 -42 -44 57 c-132 170 -295 304 -479 393 -97 47 -249
101 -330 116 -22 5 -42 9 -45 9 -108 26 -286 32 -417 14z"/>
</g>
</svg>
